# Wavefront OBJ file automatically generated by Tiled2Unity

# Vertices (Count = 113)
v -128 -80 0
v -144 -80 0
v -144 -64 0
v -128 -64 0
v -112 -80 0
v -112 -64 0
v -96 -80 0
v -96 -64 0
v -80 -80 0
v -80 -64 0
v -64 -80 0
v -64 -64 0
v -48 -80 0
v -48 -64 0
v -32 -80 0
v -32 -64 0
v -16 -80 0
v -16 -64 0
v -128 -96 0
v -144 -96 0
v -112 -96 0
v -96 -96 0
v -80 -96 0
v -64 -96 0
v -48 -96 0
v -32 -96 0
v -16 -96 0
v -128 -112 0
v -144 -112 0
v -112 -112 0
v -96 -112 0
v -80 -112 0
v -64 -112 0
v -48 -112 0
v -32 -112 0
v -16 -112 0
v -128 -128 0
v -144 -128 0
v -112 -128 0
v -96 -128 0
v -80 -128 0
v -64 -128 0
v -48 -128 0
v -32 -128 0
v -16 -128 0
v -128 -144 0
v -144 -144 0
v -112 -144 0
v -96 -144 0
v -80 -144 0
v -64 -144 0
v -48 -144 0
v -32 -144 0
v -16 -144 0
v -80 -160 0
v -96 -160 0
v -64 -160 0
v -144 -16 0
v -160 -16 0
v -160 0 0
v -144 0 0
v -128 -16 0
v -128 0 0
v -112 -16 0
v -112 0 0
v -96 -16 0
v -96 0 0
v -80 -16 0
v -80 0 0
v -64 -16 0
v -64 0 0
v -48 -16 0
v -48 0 0
v -32 -16 0
v -32 0 0
v -16 -16 0
v -16 0 0
v 0 -16 0
v 0 0 0
v -144 -32 0
v -160 -32 0
v -128 -32 0
v -112 -32 0
v -96 -32 0
v -80 -32 0
v -64 -32 0
v -48 -32 0
v -32 -32 0
v -16 -32 0
v 0 -32 0
v -144 -48 0
v -160 -48 0
v -128 -48 0
v -112 -48 0
v -96 -48 0
v -80 -48 0
v -64 -48 0
v -48 -48 0
v -32 -48 0
v -16 -48 0
v 0 -48 0
v -160 -64 0
v 0 -64 0
v -160 -80 0
v 0 -80 0
v -160 -96 0
v 0 -96 0
v -160 -112 0
v 0 -112 0
v -160 -128 0
v 0 -128 0
v -160 -144 0
v 0 -144 0

# Texture cooridinates (Count = 148)
vt 0.1581799 0.9050651
vt 0.1744647 0.9050651
vt 0.1744647 0.9352391
vt 0.1581799 0.9352391
vt 0.2986758 0.5818712
vt 0.3149606 0.5818712
vt 0.3149606 0.6120452
vt 0.2986758 0.6120452
vt 0.2459898 0.5818712
vt 0.2622746 0.5818712
vt 0.2622746 0.6120452
vt 0.2459898 0.6120452
vt 0.2811138 0.5818712
vt 0.2973986 0.5818712
vt 0.2973986 0.6120452
vt 0.2811138 0.6120452
vt 0.2635518 0.5495517
vt 0.2798366 0.5495517
vt 0.2798366 0.5797259
vt 0.2635518 0.5797259
vt 0.3337997 0.2586772
vt 0.3500845 0.2586772
vt 0.3500845 0.2888513
vt 0.3337997 0.2888513
vt 0.3162378 0.2586772
vt 0.3325226 0.2586772
vt 0.3325226 0.2888513
vt 0.3162378 0.2888513
vt 0.2986758 0.2586772
vt 0.3149606 0.2586772
vt 0.3149606 0.2888513
vt 0.2986758 0.2888513
vt 0.3337997 0.2263578
vt 0.3500845 0.2263578
vt 0.3500845 0.2565319
vt 0.3337997 0.2565319
vt 0.3162378 0.2263578
vt 0.3325226 0.2263578
vt 0.3325226 0.2565319
vt 0.3162378 0.2565319
vt 0.2986758 0.2263578
vt 0.3149606 0.2263578
vt 0.3149606 0.2565319
vt 0.2986758 0.2565319
vt 0.2284279 0.5172323
vt 0.2447126 0.5172323
vt 0.2447126 0.5474064
vt 0.2284279 0.5474064
vt 0.4567336 0.7111487
vt 0.4730184 0.7111487
vt 0.4730184 0.7413228
vt 0.4567336 0.7413228
vt 0.5269816 0.6465099
vt 0.5432664 0.6465099
vt 0.5432664 0.676684
vt 0.5269816 0.676684
vt 0.2108659 0.4525936
vt 0.2271507 0.4525936
vt 0.2271507 0.4827676
vt 0.2108659 0.4827676
vt 0.1933039 0.4525936
vt 0.2095887 0.4525936
vt 0.2095887 0.4827676
vt 0.1933039 0.4827676
vt 0.1757419 0.4525936
vt 0.1920267 0.4525936
vt 0.1920267 0.4827676
vt 0.1757419 0.4827676
vt 0.2108659 0.4202741
vt 0.2271507 0.4202741
vt 0.2271507 0.4504483
vt 0.2108659 0.4504483
vt 0.1933039 0.4202741
vt 0.2095887 0.4202741
vt 0.2095887 0.4504483
vt 0.1933039 0.4504483
vt 0.1757419 0.4202741
vt 0.1920267 0.4202741
vt 0.1920267 0.4504483
vt 0.1757419 0.4504483
vt 0.2108659 0.3879548
vt 0.2271507 0.3879548
vt 0.2271507 0.4181289
vt 0.2108659 0.4181289
vt 0.1933039 0.3879548
vt 0.2095887 0.3879548
vt 0.2095887 0.4181289
vt 0.1933039 0.4181289
vt 0.1757419 0.3879548
vt 0.1920267 0.3879548
vt 0.1920267 0.4181289
vt 0.1757419 0.4181289
vt 0.5445436 0.8727456
vt 0.5608283 0.8727456
vt 0.5608283 0.9029198
vt 0.5445436 0.9029198
vt 0.5094196 0.9050651
vt 0.5257044 0.9050651
vt 0.5257044 0.9352391
vt 0.5094196 0.9352391
vt 0.4918576 0.9050651
vt 0.5081424 0.9050651
vt 0.5081424 0.9352391
vt 0.4918576 0.9352391
vt 0.5269816 0.9697038
vt 0.5432664 0.9697038
vt 0.5432664 0.9998779
vt 0.5269816 0.9998779
vt 0.4918576 0.9697038
vt 0.5081424 0.9697038
vt 0.5081424 0.9998779
vt 0.4918576 0.9998779
vt 0.5094196 0.9697038
vt 0.5257044 0.9697038
vt 0.5257044 0.9998779
vt 0.5094196 0.9998779
vt 0.9484692 0.7111487
vt 0.964754 0.7111487
vt 0.964754 0.7413228
vt 0.9484692 0.7413228
vt 0.4567336 0.8081068
vt 0.4730184 0.8081068
vt 0.4730184 0.838281
vt 0.4567336 0.838281
vt 0.4567336 0.7757875
vt 0.4730184 0.7757875
vt 0.4730184 0.8059616
vt 0.4567336 0.8059616
vt 0.3864857 0.8404263
vt 0.4027705 0.8404263
vt 0.4027705 0.8706003
vt 0.3864857 0.8706003
vt 0.3864857 0.7757875
vt 0.4027705 0.7757875
vt 0.4027705 0.8059616
vt 0.3864857 0.8059616
vt 0.3689237 0.8404263
vt 0.3852085 0.8404263
vt 0.3852085 0.8706003
vt 0.3689237 0.8706003
vt 0.2459898 0.9373844
vt 0.2622746 0.9373844
vt 0.2622746 0.9675586
vt 0.2459898 0.9675586
vt 0.2635518 0.9373844
vt 0.2798366 0.9373844
vt 0.2798366 0.9675586
vt 0.2635518 0.9675586

# Normal
vn 0 0 -1

# Groups (Count = 4)

g mesh_0001
f 1/1/1 2/2/1 3/3/1 4/4/1
f 5/1/1 1/2/1 4/3/1 6/4/1
f 7/1/1 5/2/1 6/3/1 8/4/1
f 9/1/1 7/2/1 8/3/1 10/4/1
f 11/1/1 9/2/1 10/3/1 12/4/1
f 13/1/1 11/2/1 12/3/1 14/4/1
f 15/1/1 13/2/1 14/3/1 16/4/1
f 17/1/1 15/2/1 16/3/1 18/4/1
f 19/1/1 20/2/1 2/3/1 1/4/1
f 21/1/1 19/2/1 1/3/1 5/4/1
f 22/1/1 21/2/1 5/3/1 7/4/1
f 23/1/1 22/2/1 7/3/1 9/4/1
f 24/1/1 23/2/1 9/3/1 11/4/1
f 25/1/1 24/2/1 11/3/1 13/4/1
f 26/1/1 25/2/1 13/3/1 15/4/1
f 27/1/1 26/2/1 15/3/1 17/4/1
f 28/1/1 29/2/1 20/3/1 19/4/1
f 30/1/1 28/2/1 19/3/1 21/4/1
f 31/1/1 30/2/1 21/3/1 22/4/1
f 32/1/1 31/2/1 22/3/1 23/4/1
f 33/1/1 32/2/1 23/3/1 24/4/1
f 34/1/1 33/2/1 24/3/1 25/4/1
f 35/1/1 34/2/1 25/3/1 26/4/1
f 36/1/1 35/2/1 26/3/1 27/4/1
f 37/1/1 38/2/1 29/3/1 28/4/1
f 39/1/1 37/2/1 28/3/1 30/4/1
f 40/1/1 39/2/1 30/3/1 31/4/1
f 41/1/1 40/2/1 31/3/1 32/4/1
f 42/1/1 41/2/1 32/3/1 33/4/1
f 43/1/1 42/2/1 33/3/1 34/4/1
f 44/1/1 43/2/1 34/3/1 35/4/1
f 45/1/1 44/2/1 35/3/1 36/4/1
f 46/1/1 47/2/1 38/3/1 37/4/1
f 48/1/1 46/2/1 37/3/1 39/4/1
f 49/1/1 48/2/1 39/3/1 40/4/1
f 50/1/1 49/2/1 40/3/1 41/4/1
f 51/1/1 50/2/1 41/3/1 42/4/1
f 52/1/1 51/2/1 42/3/1 43/4/1
f 53/1/1 52/2/1 43/3/1 44/4/1
f 54/1/1 53/2/1 44/3/1 45/4/1
f 55/1/1 56/2/1 49/3/1 50/4/1
f 57/1/1 55/2/1 50/3/1 51/4/1

g mesh_0002
f 58/5/1 59/6/1 60/7/1 61/8/1
f 62/9/1 58/10/1 61/11/1 63/12/1
f 64/9/1 62/10/1 63/11/1 65/12/1
f 66/9/1 64/10/1 65/11/1 67/12/1
f 68/9/1 66/10/1 67/11/1 69/12/1
f 70/9/1 68/10/1 69/11/1 71/12/1
f 72/9/1 70/10/1 71/11/1 73/12/1
f 74/9/1 72/10/1 73/11/1 75/12/1
f 76/9/1 74/10/1 75/11/1 77/12/1
f 78/13/1 76/14/1 77/15/1 79/16/1
f 80/17/1 81/18/1 59/19/1 58/20/1
f 82/21/1 80/22/1 58/23/1 62/24/1
f 83/25/1 82/26/1 62/27/1 64/28/1
f 84/25/1 83/26/1 64/27/1 66/28/1
f 85/25/1 84/26/1 66/27/1 68/28/1
f 86/25/1 85/26/1 68/27/1 70/28/1
f 87/25/1 86/26/1 70/27/1 72/28/1
f 88/25/1 87/26/1 72/27/1 74/28/1
f 89/29/1 88/30/1 74/31/1 76/32/1
f 90/17/1 89/18/1 76/19/1 78/20/1
f 91/17/1 92/18/1 81/19/1 80/20/1
f 93/21/1 91/22/1 80/23/1 82/24/1
f 94/25/1 93/26/1 82/27/1 83/28/1
f 95/25/1 94/26/1 83/27/1 84/28/1
f 96/25/1 95/26/1 84/27/1 85/28/1
f 97/25/1 96/26/1 85/27/1 86/28/1
f 98/25/1 97/26/1 86/27/1 87/28/1
f 99/25/1 98/26/1 87/27/1 88/28/1
f 100/29/1 99/30/1 88/31/1 89/32/1
f 101/17/1 100/18/1 89/19/1 90/20/1
f 3/17/1 102/18/1 92/19/1 91/20/1
f 4/33/1 3/34/1 91/35/1 93/36/1
f 6/37/1 4/38/1 93/39/1 94/40/1
f 8/37/1 6/38/1 94/39/1 95/40/1
f 10/37/1 8/38/1 95/39/1 96/40/1
f 12/37/1 10/38/1 96/39/1 97/40/1
f 14/37/1 12/38/1 97/39/1 98/40/1
f 16/37/1 14/38/1 98/39/1 99/40/1
f 18/41/1 16/42/1 99/43/1 100/44/1
f 103/17/1 18/18/1 100/19/1 101/20/1
f 2/17/1 104/18/1 102/19/1 3/20/1
f 105/17/1 17/18/1 18/19/1 103/20/1
f 20/45/1 106/46/1 104/47/1 2/48/1
f 107/45/1 27/46/1 17/47/1 105/48/1
f 29/25/1 108/26/1 106/27/1 20/28/1
f 109/25/1 36/26/1 27/27/1 107/28/1
f 38/25/1 110/26/1 108/27/1 29/28/1
f 111/25/1 45/26/1 36/27/1 109/28/1
f 47/25/1 112/26/1 110/27/1 38/28/1
f 113/25/1 54/26/1 45/27/1 111/28/1

g mesh_0003
f 89/49/1 88/50/1 74/51/1 76/52/1
f 98/53/1 97/54/1 86/55/1 87/56/1
f 24/57/1 23/58/1 9/59/1 11/60/1
f 25/61/1 24/62/1 11/63/1 13/64/1
f 26/65/1 25/66/1 13/67/1 15/68/1
f 33/69/1 32/70/1 23/71/1 24/72/1
f 34/73/1 33/74/1 24/75/1 25/76/1
f 35/77/1 34/78/1 25/79/1 26/80/1
f 42/81/1 41/82/1 32/83/1 33/84/1
f 43/85/1 42/86/1 33/87/1 34/88/1
f 44/89/1 43/90/1 34/91/1 35/92/1

g mesh_0004
f 93/93/1 91/94/1 80/95/1 82/96/1
f 94/97/1 93/98/1 82/99/1 83/100/1
f 95/101/1 94/102/1 83/103/1 84/104/1
f 4/105/1 3/106/1 91/107/1 93/108/1
f 6/109/1 4/110/1 93/111/1 94/112/1
f 8/113/1 6/114/1 94/115/1 95/116/1
f 14/117/1 12/118/1 97/119/1 98/120/1
f 22/121/1 21/122/1 5/123/1 7/124/1
f 31/125/1 30/126/1 21/127/1 22/128/1
f 33/129/1 32/130/1 23/131/1 24/132/1
f 34/133/1 33/134/1 24/135/1 25/136/1
f 35/137/1 34/138/1 25/139/1 26/140/1
f 37/141/1 38/142/1 29/143/1 28/144/1
f 46/145/1 47/146/1 38/147/1 37/148/1

